<svg xmlns="http://www.w3.org/2000/svg" viewBox="0 0 1000 430" role="img">
<defs>
  <filter id="glow"><feGaussianBlur stdDeviation="3" result="b"/><feMerge><feMergeNode in="b"/><feMergeNode in="SourceGraphic"/></feMerge></filter>
  <linearGradient id="scan" x1="0" x2="1"><stop stop-color="#58A6FF" stop-opacity="0"/><stop offset=".5" stop-color="#58A6FF" stop-opacity=".8"/><stop offset="1" stop-color="#58A6FF" stop-opacity="0"/></linearGradient>
</defs>
<rect width="1000" height="430" rx="22" fill="#0D1117"/>
<text x="500" y="42" text-anchor="middle" fill="#8B949E" font-family="monospace" font-size="13" letter-spacing="3">MY GITHUB CONTRIBUTIONS AS A GAME OF LIFE</text>
<text x="500" y="68" text-anchor="middle" fill="#58A6FF" font-family="monospace" font-size="11">CONTRIBUTION INTENSITY → CELL STATE → EVOLUTION</text>

<!-- contribution-style seed grid -->
<g transform="translate(135 105)">
  <rect x="-18" y="-18" width="730" height="235" rx="12" fill="#080C12" stroke="#30363D"/>

  <!-- 13 columns x 7 rows; colors represent four contribution intensities -->
  <g>
<rect x="0" y="0" width="18" height="18" rx="3" fill="#161B22" opacity=".9"/><rect x="48" y="0" width="18" height="18" rx="3" fill="#26A641" opacity=".9"/><rect x="96" y="0" width="18" height="18" rx="3" fill="#006D32" opacity=".9"/><rect x="144" y="0" width="18" height="18" rx="3" fill="#0E4429" opacity=".9"/><rect x="192" y="0" width="18" height="18" rx="3" fill="#161B22" opacity=".9"/><rect x="240" y="0" width="18" height="18" rx="3" fill="#26A641" opacity=".9"/><rect x="288" y="0" width="18" height="18" rx="3" fill="#006D32" opacity=".9"/><rect x="336" y="0" width="18" height="18" rx="3" fill="#0E4429" opacity=".9"/><rect x="384" y="0" width="18" height="18" rx="3" fill="#161B22" opacity=".9"/><rect x="432" y="0" width="18" height="18" rx="3" fill="#26A641" opacity=".9"/><rect x="480" y="0" width="18" height="18" rx="3" fill="#006D32" opacity=".9"/><rect x="528" y="0" width="18" height="18" rx="3" fill="#0E4429" opacity=".9"/><rect x="576" y="0" width="18" height="18" rx="3" fill="#161B22" opacity=".9"/><rect x="0" y="30" width="18" height="18" rx="3" fill="#0E4429" opacity=".9"/><rect x="48" y="30" width="18" height="18" rx="3" fill="#0E4429" opacity=".9"/><rect x="96" y="30" width="18" height="18" rx="3" fill="#0E4429" opacity=".9"/><rect x="144" y="30" width="18" height="18" rx="3" fill="#0E4429" opacity=".9"/><rect x="192" y="30" width="18" height="18" rx="3" fill="#0E4429" opacity=".9"/><rect x="240" y="30" width="18" height="18" rx="3" fill="#0E4429" opacity=".9"/><rect x="288" y="30" width="18" height="18" rx="3" fill="#0E4429" opacity=".9"/><rect x="336" y="30" width="18" height="18" rx="3" fill="#0E4429" opacity=".9"/><rect x="384" y="30" width="18" height="18" rx="3" fill="#0E4429" opacity=".9"/><rect x="432" y="30" width="18" height="18" rx="3" fill="#0E4429" opacity=".9"/><rect x="480" y="30" width="18" height="18" rx="3" fill="#0E4429" opacity=".9"/><rect x="528" y="30" width="18" height="18" rx="3" fill="#0E4429" opacity=".9"/><rect x="576" y="30" width="18" height="18" rx="3" fill="#0E4429" opacity=".9"/><rect x="0" y="60" width="18" height="18" rx="3" fill="#006D32" opacity=".9"/><rect x="48" y="60" width="18" height="18" rx="3" fill="#26A641" opacity=".9"/><rect x="96" y="60" width="18" height="18" rx="3" fill="#161B22" opacity=".9"/><rect x="144" y="60" width="18" height="18" rx="3" fill="#0E4429" opacity=".9"/><rect x="192" y="60" width="18" height="18" rx="3" fill="#006D32" opacity=".9"/><rect x="240" y="60" width="18" height="18" rx="3" fill="#26A641" opacity=".9"/><rect x="288" y="60" width="18" height="18" rx="3" fill="#161B22" opacity=".9"/><rect x="336" y="60" width="18" height="18" rx="3" fill="#0E4429" opacity=".9"/><rect x="384" y="60" width="18" height="18" rx="3" fill="#006D32" opacity=".9"/><rect x="432" y="60" width="18" height="18" rx="3" fill="#26A641" opacity=".9"/><rect x="480" y="60" width="18" height="18" rx="3" fill="#161B22" opacity=".9"/><rect x="528" y="60" width="18" height="18" rx="3" fill="#0E4429" opacity=".9"/><rect x="576" y="60" width="18" height="18" rx="3" fill="#006D32" opacity=".9"/><rect x="0" y="90" width="18" height="18" rx="3" fill="#26A641" opacity=".9"/><rect x="48" y="90" width="18" height="18" rx="3" fill="#0E4429" opacity=".9"/><rect x="96" y="90" width="18" height="18" rx="3" fill="#26A641" opacity=".9"/><rect x="144" y="90" width="18" height="18" rx="3" fill="#0E4429" opacity=".9"/><rect x="192" y="90" width="18" height="18" rx="3" fill="#26A641" opacity=".9"/><rect x="240" y="90" width="18" height="18" rx="3" fill="#0E4429" opacity=".9"/><rect x="288" y="90" width="18" height="18" rx="3" fill="#26A641" opacity=".9"/><rect x="336" y="90" width="18" height="18" rx="3" fill="#0E4429" opacity=".9"/><rect x="384" y="90" width="18" height="18" rx="3" fill="#26A641" opacity=".9"/><rect x="432" y="90" width="18" height="18" rx="3" fill="#0E4429" opacity=".9"/><rect x="480" y="90" width="18" height="18" rx="3" fill="#26A641" opacity=".9"/><rect x="528" y="90" width="18" height="18" rx="3" fill="#0E4429" opacity=".9"/><rect x="576" y="90" width="18" height="18" rx="3" fill="#26A641" opacity=".9"/><rect x="0" y="120" width="18" height="18" rx="3" fill="#161B22" opacity=".9"/><rect x="48" y="120" width="18" height="18" rx="3" fill="#26A641" opacity=".9"/><rect x="96" y="120" width="18" height="18" rx="3" fill="#006D32" opacity=".9"/><rect x="144" y="120" width="18" height="18" rx="3" fill="#0E4429" opacity=".9"/><rect x="192" y="120" width="18" height="18" rx="3" fill="#161B22" opacity=".9"/><rect x="240" y="120" width="18" height="18" rx="3" fill="#26A641" opacity=".9"/><rect x="288" y="120" width="18" height="18" rx="3" fill="#006D32" opacity=".9"/><rect x="336" y="120" width="18" height="18" rx="3" fill="#0E4429" opacity=".9"/><rect x="384" y="120" width="18" height="18" rx="3" fill="#161B22" opacity=".9"/><rect x="432" y="120" width="18" height="18" rx="3" fill="#26A641" opacity=".9"/><rect x="480" y="120" width="18" height="18" rx="3" fill="#006D32" opacity=".9"/><rect x="528" y="120" width="18" height="18" rx="3" fill="#0E4429" opacity=".9"/><rect x="576" y="120" width="18" height="18" rx="3" fill="#161B22" opacity=".9"/><rect x="0" y="150" width="18" height="18" rx="3" fill="#0E4429" opacity=".9"/><rect x="48" y="150" width="18" height="18" rx="3" fill="#0E4429" opacity=".9"/><rect x="96" y="150" width="18" height="18" rx="3" fill="#0E4429" opacity=".9"/><rect x="144" y="150" width="18" height="18" rx="3" fill="#0E4429" opacity=".9"/><rect x="192" y="150" width="18" height="18" rx="3" fill="#0E4429" opacity=".9"/><rect x="240" y="150" width="18" height="18" rx="3" fill="#0E4429" opacity=".9"/><rect x="288" y="150" width="18" height="18" rx="3" fill="#0E4429" opacity=".9"/><rect x="336" y="150" width="18" height="18" rx="3" fill="#0E4429" opacity=".9"/><rect x="384" y="150" width="18" height="18" rx="3" fill="#0E4429" opacity=".9"/><rect x="432" y="150" width="18" height="18" rx="3" fill="#0E4429" opacity=".9"/><rect x="480" y="150" width="18" height="18" rx="3" fill="#0E4429" opacity=".9"/><rect x="528" y="150" width="18" height="18" rx="3" fill="#0E4429" opacity=".9"/><rect x="576" y="150" width="18" height="18" rx="3" fill="#0E4429" opacity=".9"/><rect x="0" y="180" width="18" height="18" rx="3" fill="#006D32" opacity=".9"/><rect x="48" y="180" width="18" height="18" rx="3" fill="#26A641" opacity=".9"/><rect x="96" y="180" width="18" height="18" rx="3" fill="#161B22" opacity=".9"/><rect x="144" y="180" width="18" height="18" rx="3" fill="#0E4429" opacity=".9"/><rect x="192" y="180" width="18" height="18" rx="3" fill="#006D32" opacity=".9"/><rect x="240" y="180" width="18" height="18" rx="3" fill="#26A641" opacity=".9"/><rect x="288" y="180" width="18" height="18" rx="3" fill="#161B22" opacity=".9"/><rect x="336" y="180" width="18" height="18" rx="3" fill="#0E4429" opacity=".9"/><rect x="384" y="180" width="18" height="18" rx="3" fill="#006D32" opacity=".9"/><rect x="432" y="180" width="18" height="18" rx="3" fill="#26A641" opacity=".9"/><rect x="480" y="180" width="18" height="18" rx="3" fill="#161B22" opacity=".9"/><rect x="528" y="180" width="18" height="18" rx="3" fill="#0E4429" opacity=".9"/><rect x="576" y="180" width="18" height="18" rx="3" fill="#006D32" opacity=".9"/>
  </g>

  <!-- animated evolution layer -->
  <g fill="#58A6FF" filter="url(#glow)">
<rect x="3" y="3" width="12" height="12" rx="2" opacity="0"><animate attributeName="opacity" values="0;0.2;0" dur="1.4s" begin="0.0s" repeatCount="indefinite"/></rect><rect x="99" y="3" width="12" height="12" rx="2" opacity="0"><animate attributeName="opacity" values="0;0.6000000000000001;0" dur="1.7999999999999998s" begin="0.36s" repeatCount="indefinite"/></rect><rect x="147" y="3" width="12" height="12" rx="2" opacity="0"><animate attributeName="opacity" values="0;0.8;0" dur="2.0s" begin="0.54s" repeatCount="indefinite"/></rect><rect x="243" y="3" width="12" height="12" rx="2" opacity="0"><animate attributeName="opacity" values="0;0.4;0" dur="1.4s" begin="0.8999999999999999s" repeatCount="indefinite"/></rect><rect x="291" y="3" width="12" height="12" rx="2" opacity="0"><animate attributeName="opacity" values="0;0.6000000000000001;0" dur="1.5999999999999999s" begin="1.08s" repeatCount="indefinite"/></rect><rect x="387" y="3" width="12" height="12" rx="2" opacity="0"><animate attributeName="opacity" values="0;0.2;0" dur="2.0s" begin="1.44s" repeatCount="indefinite"/></rect><rect x="435" y="3" width="12" height="12" rx="2" opacity="0"><animate attributeName="opacity" values="0;0.4;0" dur="2.2s" begin="0.0s" repeatCount="indefinite"/></rect><rect x="531" y="3" width="12" height="12" rx="2" opacity="0"><animate attributeName="opacity" values="0;0.8;0" dur="1.5999999999999999s" begin="0.36s" repeatCount="indefinite"/></rect><rect x="579" y="3" width="12" height="12" rx="2" opacity="0"><animate attributeName="opacity" values="0;0.2;0" dur="1.7999999999999998s" begin="0.54s" repeatCount="indefinite"/></rect><rect x="51" y="33" width="12" height="12" rx="2" opacity="0"><animate attributeName="opacity" values="0;0.6000000000000001;0" dur="2.2s" begin="0.36s" repeatCount="indefinite"/></rect><rect x="99" y="33" width="12" height="12" rx="2" opacity="0"><animate attributeName="opacity" values="0;0.8;0" dur="1.4s" begin="0.54s" repeatCount="indefinite"/></rect><rect x="195" y="33" width="12" height="12" rx="2" opacity="0"><animate attributeName="opacity" values="0;0.4;0" dur="1.7999999999999998s" begin="0.8999999999999999s" repeatCount="indefinite"/></rect><rect x="243" y="33" width="12" height="12" rx="2" opacity="0"><animate attributeName="opacity" values="0;0.6000000000000001;0" dur="2.0s" begin="1.08s" repeatCount="indefinite"/></rect><rect x="339" y="33" width="12" height="12" rx="2" opacity="0"><animate attributeName="opacity" values="0;0.2;0" dur="1.4s" begin="1.44s" repeatCount="indefinite"/></rect><rect x="387" y="33" width="12" height="12" rx="2" opacity="0"><animate attributeName="opacity" values="0;0.4;0" dur="1.5999999999999999s" begin="0.0s" repeatCount="indefinite"/></rect><rect x="483" y="33" width="12" height="12" rx="2" opacity="0"><animate attributeName="opacity" values="0;0.8;0" dur="2.0s" begin="0.36s" repeatCount="indefinite"/></rect><rect x="531" y="33" width="12" height="12" rx="2" opacity="0"><animate attributeName="opacity" values="0;0.2;0" dur="2.2s" begin="0.54s" repeatCount="indefinite"/></rect><rect x="3" y="63" width="12" height="12" rx="2" opacity="0"><animate attributeName="opacity" values="0;0.6000000000000001;0" dur="1.5999999999999999s" begin="0.36s" repeatCount="indefinite"/></rect><rect x="51" y="63" width="12" height="12" rx="2" opacity="0"><animate attributeName="opacity" values="0;0.8;0" dur="1.7999999999999998s" begin="0.54s" repeatCount="indefinite"/></rect><rect x="147" y="63" width="12" height="12" rx="2" opacity="0"><animate attributeName="opacity" values="0;0.4;0" dur="2.2s" begin="0.8999999999999999s" repeatCount="indefinite"/></rect><rect x="195" y="63" width="12" height="12" rx="2" opacity="0"><animate attributeName="opacity" values="0;0.6000000000000001;0" dur="1.4s" begin="1.08s" repeatCount="indefinite"/></rect><rect x="291" y="63" width="12" height="12" rx="2" opacity="0"><animate attributeName="opacity" values="0;0.2;0" dur="1.7999999999999998s" begin="1.44s" repeatCount="indefinite"/></rect><rect x="339" y="63" width="12" height="12" rx="2" opacity="0"><animate attributeName="opacity" values="0;0.4;0" dur="2.0s" begin="0.0s" repeatCount="indefinite"/></rect><rect x="435" y="63" width="12" height="12" rx="2" opacity="0"><animate attributeName="opacity" values="0;0.8;0" dur="1.4s" begin="0.36s" repeatCount="indefinite"/></rect><rect x="483" y="63" width="12" height="12" rx="2" opacity="0"><animate attributeName="opacity" values="0;0.2;0" dur="1.5999999999999999s" begin="0.54s" repeatCount="indefinite"/></rect><rect x="579" y="63" width="12" height="12" rx="2" opacity="0"><animate attributeName="opacity" values="0;0.6000000000000001;0" dur="2.0s" begin="0.8999999999999999s" repeatCount="indefinite"/></rect><rect x="3" y="93" width="12" height="12" rx="2" opacity="0"><animate attributeName="opacity" values="0;0.8;0" dur="2.2s" begin="0.54s" repeatCount="indefinite"/></rect><rect x="99" y="93" width="12" height="12" rx="2" opacity="0"><animate attributeName="opacity" values="0;0.4;0" dur="1.5999999999999999s" begin="0.8999999999999999s" repeatCount="indefinite"/></rect><rect x="147" y="93" width="12" height="12" rx="2" opacity="0"><animate attributeName="opacity" values="0;0.6000000000000001;0" dur="1.7999999999999998s" begin="1.08s" repeatCount="indefinite"/></rect><rect x="243" y="93" width="12" height="12" rx="2" opacity="0"><animate attributeName="opacity" values="0;0.2;0" dur="2.2s" begin="1.44s" repeatCount="indefinite"/></rect><rect x="291" y="93" width="12" height="12" rx="2" opacity="0"><animate attributeName="opacity" values="0;0.4;0" dur="1.4s" begin="0.0s" repeatCount="indefinite"/></rect><rect x="387" y="93" width="12" height="12" rx="2" opacity="0"><animate attributeName="opacity" values="0;0.8;0" dur="1.7999999999999998s" begin="0.36s" repeatCount="indefinite"/></rect><rect x="435" y="93" width="12" height="12" rx="2" opacity="0"><animate attributeName="opacity" values="0;0.2;0" dur="2.0s" begin="0.54s" repeatCount="indefinite"/></rect><rect x="531" y="93" width="12" height="12" rx="2" opacity="0"><animate attributeName="opacity" values="0;0.6000000000000001;0" dur="1.4s" begin="0.8999999999999999s" repeatCount="indefinite"/></rect><rect x="579" y="93" width="12" height="12" rx="2" opacity="0"><animate attributeName="opacity" values="0;0.8;0" dur="1.5999999999999999s" begin="1.08s" repeatCount="indefinite"/></rect><rect x="51" y="123" width="12" height="12" rx="2" opacity="0"><animate attributeName="opacity" values="0;0.4;0" dur="2.0s" begin="0.8999999999999999s" repeatCount="indefinite"/></rect><rect x="99" y="123" width="12" height="12" rx="2" opacity="0"><animate attributeName="opacity" values="0;0.6000000000000001;0" dur="2.2s" begin="1.08s" repeatCount="indefinite"/></rect><rect x="195" y="123" width="12" height="12" rx="2" opacity="0"><animate attributeName="opacity" values="0;0.2;0" dur="1.5999999999999999s" begin="1.44s" repeatCount="indefinite"/></rect><rect x="243" y="123" width="12" height="12" rx="2" opacity="0"><animate attributeName="opacity" values="0;0.4;0" dur="1.7999999999999998s" begin="0.0s" repeatCount="indefinite"/></rect><rect x="339" y="123" width="12" height="12" rx="2" opacity="0"><animate attributeName="opacity" values="0;0.8;0" dur="2.2s" begin="0.36s" repeatCount="indefinite"/></rect><rect x="387" y="123" width="12" height="12" rx="2" opacity="0"><animate attributeName="opacity" values="0;0.2;0" dur="1.4s" begin="0.54s" repeatCount="indefinite"/></rect><rect x="483" y="123" width="12" height="12" rx="2" opacity="0"><animate attributeName="opacity" values="0;0.6000000000000001;0" dur="1.7999999999999998s" begin="0.8999999999999999s" repeatCount="indefinite"/></rect><rect x="531" y="123" width="12" height="12" rx="2" opacity="0"><animate attributeName="opacity" values="0;0.8;0" dur="2.0s" begin="1.08s" repeatCount="indefinite"/></rect><rect x="3" y="153" width="12" height="12" rx="2" opacity="0"><animate attributeName="opacity" values="0;0.4;0" dur="1.4s" begin="0.8999999999999999s" repeatCount="indefinite"/></rect><rect x="51" y="153" width="12" height="12" rx="2" opacity="0"><animate attributeName="opacity" values="0;0.6000000000000001;0" dur="1.5999999999999999s" begin="1.08s" repeatCount="indefinite"/></rect><rect x="147" y="153" width="12" height="12" rx="2" opacity="0"><animate attributeName="opacity" values="0;0.2;0" dur="2.0s" begin="1.44s" repeatCount="indefinite"/></rect><rect x="195" y="153" width="12" height="12" rx="2" opacity="0"><animate attributeName="opacity" values="0;0.4;0" dur="2.2s" begin="0.0s" repeatCount="indefinite"/></rect><rect x="291" y="153" width="12" height="12" rx="2" opacity="0"><animate attributeName="opacity" values="0;0.8;0" dur="1.5999999999999999s" begin="0.36s" repeatCount="indefinite"/></rect><rect x="339" y="153" width="12" height="12" rx="2" opacity="0"><animate attributeName="opacity" values="0;0.2;0" dur="1.7999999999999998s" begin="0.54s" repeatCount="indefinite"/></rect><rect x="435" y="153" width="12" height="12" rx="2" opacity="0"><animate attributeName="opacity" values="0;0.6000000000000001;0" dur="2.2s" begin="0.8999999999999999s" repeatCount="indefinite"/></rect><rect x="483" y="153" width="12" height="12" rx="2" opacity="0"><animate attributeName="opacity" values="0;0.8;0" dur="1.4s" begin="1.08s" repeatCount="indefinite"/></rect><rect x="579" y="153" width="12" height="12" rx="2" opacity="0"><animate attributeName="opacity" values="0;0.4;0" dur="1.7999999999999998s" begin="1.44s" repeatCount="indefinite"/></rect><rect x="3" y="183" width="12" height="12" rx="2" opacity="0"><animate attributeName="opacity" values="0;0.6000000000000001;0" dur="2.0s" begin="1.08s" repeatCount="indefinite"/></rect><rect x="99" y="183" width="12" height="12" rx="2" opacity="0"><animate attributeName="opacity" values="0;0.2;0" dur="1.4s" begin="1.44s" repeatCount="indefinite"/></rect><rect x="147" y="183" width="12" height="12" rx="2" opacity="0"><animate attributeName="opacity" values="0;0.4;0" dur="1.5999999999999999s" begin="0.0s" repeatCount="indefinite"/></rect><rect x="243" y="183" width="12" height="12" rx="2" opacity="0"><animate attributeName="opacity" values="0;0.8;0" dur="2.0s" begin="0.36s" repeatCount="indefinite"/></rect><rect x="291" y="183" width="12" height="12" rx="2" opacity="0"><animate attributeName="opacity" values="0;0.2;0" dur="2.2s" begin="0.54s" repeatCount="indefinite"/></rect><rect x="387" y="183" width="12" height="12" rx="2" opacity="0"><animate attributeName="opacity" values="0;0.6000000000000001;0" dur="1.5999999999999999s" begin="0.8999999999999999s" repeatCount="indefinite"/></rect><rect x="435" y="183" width="12" height="12" rx="2" opacity="0"><animate attributeName="opacity" values="0;0.8;0" dur="1.7999999999999998s" begin="1.08s" repeatCount="indefinite"/></rect><rect x="531" y="183" width="12" height="12" rx="2" opacity="0"><animate attributeName="opacity" values="0;0.4;0" dur="2.2s" begin="1.44s" repeatCount="indefinite"/></rect><rect x="579" y="183" width="12" height="12" rx="2" opacity="0"><animate attributeName="opacity" values="0;0.6000000000000001;0" dur="1.4s" begin="0.0s" repeatCount="indefinite"/></rect>
  </g>

  <rect x="-18" y="-18" width="8" height="235" fill="url(#scan)" opacity=".45">
    <animate attributeName="x" values="-18;700;-18" dur="5s" repeatCount="indefinite"/>
  </rect>
</g>

<g font-family="monospace">
  <text x="500" y="345" text-anchor="middle" fill="#C9D1D9" font-size="14">A CONTRIBUTION GRAPH IS A SNAPSHOT.</text>
  <text x="500" y="372" text-anchor="middle" fill="#8B949E" font-size="12">THE INTERESTING PART IS WHAT HAPPENS WHEN THE STATE IS ALLOWED TO EVOLVE.</text>
  <text x="500" y="402" text-anchor="middle" fill="#58A6FF" font-size="11">INSPIRED BY EDWARD THOMSON'S CONTRIBUTION → GAME OF LIFE EXPERIMENT</text>
</g>
</svg>